<svg viewBox="0 0 489.6 489.6" xmlns="http://www.w3.org/2000/svg" fill="currentColor" class="icon">
	<path d="m311.6 437.9-129.4 34.6 9.4-34.6H44.7V51.7h293v168.2l44.7-44.7V3.1H0v483.4h382.4V369.2z"/>
	<path d="m235.1 364.9-20.2 74.6 75-19.8zM425.5 164.7 246.7 343.5l.4.4 63.8 63.7h.4l178.3-178.7zM292.6 105.3H91.7c-6.2 0-11.7 5.1-11.7 11.7 0 6.2 5.1 11.7 11.7 11.7h200.9c6.2 0 11.7-5.1 11.7-11.7 0-6.3-5.5-11.7-11.7-11.7zM292.6 176.4H91.7c-6.2 0-11.7 5.1-11.7 11.7 0 6.2 5.1 11.7 11.7 11.7h200.9c6.2 0 11.7-5.1 11.7-11.7 0-6.3-5.5-11.7-11.7-11.7zM304.3 259.2c0-6.2-5.1-11.7-11.7-11.7H91.7c-6.2 0-11.7 5.1-11.7 11.7 0 6.2 5.1 11.7 11.7 11.7h200.9c6.2-.1 11.7-5.5 11.7-11.7z"/>
</svg>
