<svg viewBox="145 170 460 415" xmlns="http://www.w3.org/2000/svg" fill="currentColor" class="icon">
	<path d="M512.9 530c3-.8 5.2-1.6 8.1-2.3a25.1 25.1 0 0 0 16.3-20 24.1 24.1 0 0 0-10.3-24.4c-4.5-3.7-9.7-6-14.8-8.1a88.5 88.5 0 0 1-11.9-6c-4.4-3-6-7.4-5.2-12.5.8-5.2 3.7-8.2 9-10.4a33.4 33.4 0 0 1 26.6 3.7c1.4-3 2.2-6 3.7-9.6 0 0 0-.8-.8-1.5-3-1.5-5.2-2.2-8.1-3l-10.4-2.2v-9.6h-9.6v10.4c-.7 0-1.5 0-2.2.7-4.5.7-9 3-12.6 6-11.1 8.8-12.6 25.8-.7 35.4a65 65 0 0 0 15.5 9 41 41 0 0 1 12.6 6.6c9.6 7.4 8.1 21.4-3 25.9-2.2.7-5.2 1.5-8.1 1.5a41 41 0 0 1-23-6.7c-.7 3-2.2 6-3 8.9 0 .7 0 1.5.8 2.2 3.7 2.2 7.4 3.7 11.9 4.4 3.7.8 6.6.8 10.3 1.5v10.4h10.4v-10.4z" />
	<path d="M510.7 393h-2.2a90.6 90.6 0 0 0-90.3 90.3 91.3 91.3 0 0 0 90.3 91 90.6 90.6 0 0 0 90.2-90.3 89.9 89.9 0 0 0-88-91zm0 161.3h-2.2a71 71 0 0 1 0-142h2.2a71 71 0 0 1 0 142z" />
	<path d="M564 350.8 368.6 181.4a11.6 11.6 0 0 0-16.3 0l-68 60.7v-13.4c0-7.4-6-13.3-13.4-13.3h-17c-7.4 0-13.3 6-13.3 13.3v50.4l-84.4 71.7a11.2 11.2 0 0 0 8.2 19.3h55.5v203.5h63.6V458a34.6 34.6 0 0 1 34-34.7c9.7 0 18.5 3.7 24.5 10.3 5.9 6 10.3 14.8 10.3 24.4v116.2h115.4a99.6 99.6 0 0 1-58.4-90.3c0-54 43.7-98.4 97.7-99.1v-14h48.8c10.4-.8 15.6-13.4 8.1-20zm-213.2-2.2h-26.6v-51.8h26.6zm46 0H370v-51.8h26.6z" />
</svg>
