<svg viewBox="0 0 512 512" fill="currentColor">
	<path d="M251.092.049C121.207 2.652 16.552 109.664 16.696 239.575c.083 75.073 34.866 141.875 89.043 185.668v70.062c0 9.22 7.475 16.696 16.696 16.696h33.391c9.22 0 16.696-7.475 16.696-16.696v-32.919c0-8.99 6.909-16.726 15.889-17.149 9.588-.451 17.503 7.188 17.503 16.677v33.391c0 9.22 7.475 16.696 16.696 16.696s16.696-7.475 16.696-16.696v-32.919c0-8.99 6.909-16.726 15.889-17.149 9.588-.451 17.503 7.188 17.503 16.677v33.391c0 9.22 7.475 16.696 16.696 16.696s16.696-7.475 16.696-16.696v-32.919c0-8.99 6.909-16.726 15.889-17.149 9.588-.451 17.503 7.188 17.503 16.677v33.391c0 9.22 7.475 16.696 16.696 16.696h33.391c9.22 0 16.696-7.475 16.696-16.696v-70.062c54.242-43.845 89.043-110.756 89.043-185.938C495.305 105.508 385.502-2.643 251.092.049zM150.261 322.783c-36.883 0-66.783-29.9-66.783-66.783s29.9-66.783 66.783-66.783 66.783 29.9 66.783 66.783-29.9 66.783-66.783 66.783zm150.934 61.891a16.642 16.642 0 0 1-11.804 4.892 16.643 16.643 0 0 1-11.805-4.892L256 363.087l-21.587 21.587c-6.521 6.521-17.087 6.521-23.609 0-6.521-6.521-6.521-17.087 0-23.609l33.391-33.391c6.521-6.521 17.087-6.521 23.609 0l33.391 33.391c6.523 6.522 6.523 17.087 0 23.609zm60.544-61.891c-36.883 0-66.783-29.9-66.783-66.783s29.9-66.783 66.783-66.783 66.783 29.9 66.783 66.783-29.9 66.783-66.783 66.783z"/>
</svg>
